<?xml version="1.0" encoding="UTF-8" standalone="no"?>
<svg width="19px" height="11px" viewBox="0 0 19 11" version="1.1" xmlns="http://www.w3.org/2000/svg" xmlns:xlink="http://www.w3.org/1999/xlink">
    <!-- Generator: Sketch 44 (41411) - http://www.bohemiancoding.com/sketch -->
    <title>eye</title>
    <desc>Created with Sketch.</desc>
    <defs></defs>
    <g id="Page-1" stroke="none" stroke-width="1" fill="none" fill-rule="evenodd">
        <g id="DT-UI-kit" transform="translate(-1215.000000, -5545.000000)" fill="#314559">
            <g id="eye" transform="translate(1215.000000, 5545.000000)">
                <path d="M9.25353438,9.21713158 C7.12197188,9.21713158 5.39415938,7.53239474 5.39415938,5.45397368 C5.39415938,3.37555263 7.12197188,1.69081579 9.25353438,1.69081579 C11.3850969,1.69081579 13.1129094,3.37555263 13.1129094,5.45397368 C13.1129094,7.53239474 11.3850969,9.21713158 9.25353438,9.21713158 M17.6105656,3.81439474 L13.8800344,1.37355263 C11.0816906,-0.457657895 7.42537812,-0.457657895 4.62703437,1.37355263 L0.896503125,3.81439474 C-0.298715625,4.59713158 -0.298715625,6.31081579 0.896503125,7.09297368 L4.62703437,9.53439474 C7.42537812,11.3656053 11.0816906,11.3656053 13.8800344,9.53439474 L17.6105656,7.09297368 C18.8057844,6.31081579 18.8057844,4.59713158 17.6105656,3.81439474" id="Fill-1"></path>
                <path d="M9.25353438,4.00660526 C8.43356563,4.00660526 7.76915938,4.65444737 7.76915938,5.45397368 C7.76915938,6.2535 8.43356563,6.90134211 9.25353438,6.90134211 C10.0735031,6.90134211 10.7379094,6.2535 10.7379094,5.45397368 C10.7379094,4.65444737 10.0735031,4.00660526 9.25353438,4.00660526" id="Fill-3"></path>
            </g>
        </g>
    </g>
</svg>