<!-- <svg width="125" height="23" viewBox="0 0 125 23" fill="none" xmlns="http://www.w3.org/2000/svg">
<path d="M15.4844 1.1875H0.671875V19H3.625V3.90625H12.5312V19H15.4844V1.1875ZM31.7969 16.5625C31.1875 16.5625 30.9062 16.2812 30.9062 15.6719V9.34375C30.9062 6.4375 28.8438 4.70312 25.4688 4.70312C23.0312 4.70312 21.0156 5.54688 19.375 7.09375L21.1094 8.92188C22.2344 7.75 23.7344 7.04688 25.3281 7.04688C27.1094 7.04688 28.2812 7.79688 28.2812 8.92188C28.2812 10 27.25 10.1875 25.1406 10.4688C22.4219 10.8906 19.0938 11.6406 19.0938 15.1094C19.0938 17.5469 20.9219 19.2344 23.6875 19.2344C25.75 19.2344 27.625 18.2969 28.6094 16.8438C28.7969 18.4844 29.5938 19.0938 31.3281 19.0938C31.7969 19.0938 32.1719 19.0469 32.3125 19V16.5625H31.7969ZM24.1562 16.9375C22.7031 16.9375 21.8594 16.2344 21.8594 14.9219C21.8594 13.0938 23.6875 12.8125 25.4688 12.5312C26.8281 12.2969 27.6719 12.1562 28.1875 11.8281V13.6562C28.1875 15.4375 26.3125 16.9375 24.1562 16.9375ZM45.1094 4.9375V10.5625H38.2656V4.9375H35.4531V19H38.2656V13.0938H45.1094V19H47.9219V4.9375H45.1094ZM64.5156 16.5156V4.9375H52.9844V10.7969C52.9844 13.5625 52.8438 15.3906 52.5625 16.5156H50.9219V22.2812H53.5938V19H63.7188V22.2812H66.3906V16.5156H64.5156ZM55.2812 16.5156C55.5625 15.1094 55.7031 13.1875 55.7031 10.9375V7.42188H61.75V16.5156H55.2812ZM70.8906 12.8594H81.7188C81.8125 12.5312 81.8125 12.2969 81.8125 11.9688C81.8125 7.5625 79.1406 4.70312 75.0156 4.70312C70.8906 4.70312 68.0781 7.65625 68.0781 11.9688C68.0781 16.1406 70.6094 19.2344 75.25 19.2344C78.2031 19.2344 80.1719 18.1094 81.3438 16.7031L79.4219 15.0156C78.625 16.0469 77.3125 16.8438 75.25 16.8438C72.7656 16.8438 71.2188 15.2969 70.8906 12.8594ZM75.0156 7.04688C77.125 7.04688 78.5781 8.40625 78.9531 10.7031H70.9375C71.3594 8.45312 72.8125 7.04688 75.0156 7.04688ZM101.688 4.9375H97.4219L93.4375 15.8594L89.4062 4.9375H85.0938V19H87.8125V7.89062L91.8906 19H94.8906L98.9688 7.89062V19H101.688V4.9375ZM124.562 4.9375H118.234C115.047 4.9375 113.031 6.71875 113.031 9.4375C113.031 11.3125 114.062 12.6719 115.844 13.3281L112.094 19H115.234L118.656 13.7031H121.75V19H124.562V4.9375ZM118.516 11.5938C116.828 11.5938 115.844 10.7969 115.844 9.39062C115.844 8.07812 116.828 7.28125 118.516 7.28125H121.75V11.5938H118.516Z" fill="black"/>
<path d="M106.188 2.96875H109.281V0.15625H106.188V2.96875ZM106.328 19H109.141V4.9375H106.328V19Z" fill="#007EFF"/>
<path style="color:#FF3800" d="M4.10547 0.818359C5.02344 0.818359 5.74609 1.02148 6.27344 1.42773C6.80469 1.83398 7.07031 2.39844 7.07031 3.12109C7.07031 3.70312 6.92188 4.16406 6.625 4.50391C6.32812 4.83984 5.9043 5.05273 5.35352 5.14258V5.17773C6.08789 5.27148 6.63477 5.50781 6.99414 5.88672C7.35742 6.26172 7.53906 6.78906 7.53906 7.46875C7.53906 8.28906 7.2832 8.93555 6.77148 9.4082C6.26367 9.88086 5.56445 10.1172 4.67383 10.1172C3.89258 10.1172 3.25586 9.99414 2.76367 9.74805V12.8828H0.976562V3.57812C0.976562 2.70313 1.25 2.02539 1.79688 1.54492C2.34375 1.06055 3.11328 0.818359 4.10547 0.818359ZM4.05859 2.21289C3.19531 2.21289 2.76367 2.72461 2.76367 3.74805V8.2832C2.95117 8.4043 3.18164 8.50391 3.45508 8.58203C3.72852 8.65625 3.98242 8.69336 4.2168 8.69336C4.7168 8.69336 5.08789 8.57227 5.33008 8.33008C5.57227 8.08789 5.69336 7.74805 5.69336 7.31055C5.69336 6.88086 5.5625 6.55469 5.30078 6.33203C5.04297 6.10547 4.66602 5.99219 4.16992 5.99219H3.74805V4.57422H4.05859C4.44531 4.57422 4.74609 4.46875 4.96094 4.25781C5.17578 4.04297 5.2832 3.73633 5.2832 3.33789C5.2832 2.97852 5.17578 2.70117 4.96094 2.50586C4.74609 2.31055 4.44531 2.21289 4.05859 2.21289Z" fill="white"/>
</svg> -->

<svg width="148" height="40" viewBox="0 0 148 40" fill="none" xmlns="http://www.w3.org/2000/svg">
<path d="M17.4844 16.1875H2.67188V34H5.625V18.9062H14.5312V34H17.4844V16.1875ZM33.7969 31.5625C33.1875 31.5625 32.9062 31.2812 32.9062 30.6719V24.3438C32.9062 21.4375 30.8438 19.7031 27.4688 19.7031C25.0312 19.7031 23.0156 20.5469 21.375 22.0938L23.1094 23.9219C24.2344 22.75 25.7344 22.0469 27.3281 22.0469C29.1094 22.0469 30.2812 22.7969 30.2812 23.9219C30.2812 25 29.25 25.1875 27.1406 25.4688C24.4219 25.8906 21.0938 26.6406 21.0938 30.1094C21.0938 32.5469 22.9219 34.2344 25.6875 34.2344C27.75 34.2344 29.625 33.2969 30.6094 31.8438C30.7969 33.4844 31.5938 34.0938 33.3281 34.0938C33.7969 34.0938 34.1719 34.0469 34.3125 34V31.5625H33.7969ZM26.1562 31.9375C24.7031 31.9375 23.8594 31.2344 23.8594 29.9219C23.8594 28.0938 25.6875 27.8125 27.4688 27.5312C28.8281 27.2969 29.6719 27.1562 30.1875 26.8281V28.6562C30.1875 30.4375 28.3125 31.9375 26.1562 31.9375ZM47.1094 19.9375V25.5625H40.2656V19.9375H37.4531V34H40.2656V28.0938H47.1094V34H49.9219V19.9375H47.1094ZM66.5156 31.5156V19.9375H54.9844V25.7969C54.9844 28.5625 54.8438 30.3906 54.5625 31.5156H52.9219V37.2812H55.5938V34H65.7188V37.2812H68.3906V31.5156H66.5156ZM57.2812 31.5156C57.5625 30.1094 57.7031 28.1875 57.7031 25.9375V22.4219H63.75V31.5156H57.2812ZM72.8906 27.8594H83.7188C83.8125 27.5312 83.8125 27.2969 83.8125 26.9688C83.8125 22.5625 81.1406 19.7031 77.0156 19.7031C72.8906 19.7031 70.0781 22.6562 70.0781 26.9688C70.0781 31.1406 72.6094 34.2344 77.25 34.2344C80.2031 34.2344 82.1719 33.1094 83.3438 31.7031L81.4219 30.0156C80.625 31.0469 79.3125 31.8438 77.25 31.8438C74.7656 31.8438 73.2188 30.2969 72.8906 27.8594ZM77.0156 22.0469C79.125 22.0469 80.5781 23.4062 80.9531 25.7031H72.9375C73.3594 23.4531 74.8125 22.0469 77.0156 22.0469ZM103.688 19.9375H99.4219L95.4375 30.8594L91.4062 19.9375H87.0938V34H89.8125V22.8906L93.8906 34H96.8906L100.969 22.8906V34H103.688V19.9375ZM126.562 19.9375H120.234C117.047 19.9375 115.031 21.7188 115.031 24.4375C115.031 26.3125 116.062 27.6719 117.844 28.3281L114.094 34H117.234L120.656 28.7031H123.75V34H126.562V19.9375ZM120.516 26.5938C118.828 26.5938 117.844 25.7969 117.844 24.3906C117.844 23.0781 118.828 22.2812 120.516 22.2812H123.75V26.5938H120.516Z" fill="black"/>
<path d="M108.188 17.9688H111.281V15.1562H108.188V17.9688ZM108.328 34H111.141V19.9375H108.328V34Z" fill="#007EFF"/>
<rect x="128" y="4" width="20" height="16" rx="8" fill="#FF3800"/>
<path d="M138.105 6.81836C139.023 6.81836 139.746 7.02148 140.273 7.42773C140.805 7.83398 141.07 8.39844 141.07 9.12109C141.07 9.70312 140.922 10.1641 140.625 10.5039C140.328 10.8398 139.904 11.0527 139.354 11.1426V11.1777C140.088 11.2715 140.635 11.5078 140.994 11.8867C141.357 12.2617 141.539 12.7891 141.539 13.4688C141.539 14.2891 141.283 14.9355 140.771 15.4082C140.264 15.8809 139.564 16.1172 138.674 16.1172C137.893 16.1172 137.256 15.9941 136.764 15.748V18.8828H134.977V9.57812C134.977 8.70312 135.25 8.02539 135.797 7.54492C136.344 7.06055 137.113 6.81836 138.105 6.81836ZM138.059 8.21289C137.195 8.21289 136.764 8.72461 136.764 9.74805V14.2832C136.951 14.4043 137.182 14.5039 137.455 14.582C137.729 14.6562 137.982 14.6934 138.217 14.6934C138.717 14.6934 139.088 14.5723 139.33 14.3301C139.572 14.0879 139.693 13.748 139.693 13.3105C139.693 12.8809 139.562 12.5547 139.301 12.332C139.043 12.1055 138.666 11.9922 138.17 11.9922H137.748V10.5742H138.059C138.445 10.5742 138.746 10.4688 138.961 10.2578C139.176 10.043 139.283 9.73633 139.283 9.33789C139.283 8.97852 139.176 8.70117 138.961 8.50586C138.746 8.31055 138.445 8.21289 138.059 8.21289Z" fill="white"/>
</svg>
