<svg width="148" height="40" viewBox="0 0 148 40" fill="none" xmlns="http://www.w3.org/2000/svg">
    <path d="M17.4844 16.1875H2.67188V34H5.625V18.9062H14.5312V34H17.4844V16.1875ZM33.7969 31.5625C33.1875 31.5625 32.9062 31.2812 32.9062 30.6719V24.3438C32.9062 21.4375 30.8438 19.7031 27.4688 19.7031C25.0312 19.7031 23.0156 20.5469 21.375 22.0938L23.1094 23.9219C24.2344 22.75 25.7344 22.0469 27.3281 22.0469C29.1094 22.0469 30.2812 22.7969 30.2812 23.9219C30.2812 25 29.25 25.1875 27.1406 25.4688C24.4219 25.8906 21.0938 26.6406 21.0938 30.1094C21.0938 32.5469 22.9219 34.2344 25.6875 34.2344C27.75 34.2344 29.625 33.2969 30.6094 31.8438C30.7969 33.4844 31.5938 34.0938 33.3281 34.0938C33.7969 34.0938 34.1719 34.0469 34.3125 34V31.5625H33.7969ZM26.1562 31.9375C24.7031 31.9375 23.8594 31.2344 23.8594 29.9219C23.8594 28.0938 25.6875 27.8125 27.4688 27.5312C28.8281 27.2969 29.6719 27.1562 30.1875 26.8281V28.6562C30.1875 30.4375 28.3125 31.9375 26.1562 31.9375ZM47.1094 19.9375V25.5625H40.2656V19.9375H37.4531V34H40.2656V28.0938H47.1094V34H49.9219V19.9375H47.1094ZM66.5156 31.5156V19.9375H54.9844V25.7969C54.9844 28.5625 54.8438 30.3906 54.5625 31.5156H52.9219V37.2812H55.5938V34H65.7188V37.2812H68.3906V31.5156H66.5156ZM57.2812 31.5156C57.5625 30.1094 57.7031 28.1875 57.7031 25.9375V22.4219H63.75V31.5156H57.2812ZM72.8906 27.8594H83.7188C83.8125 27.5312 83.8125 27.2969 83.8125 26.9688C83.8125 22.5625 81.1406 19.7031 77.0156 19.7031C72.8906 19.7031 70.0781 22.6562 70.0781 26.9688C70.0781 31.1406 72.6094 34.2344 77.25 34.2344C80.2031 34.2344 82.1719 33.1094 83.3438 31.7031L81.4219 30.0156C80.625 31.0469 79.3125 31.8438 77.25 31.8438C74.7656 31.8438 73.2188 30.2969 72.8906 27.8594ZM77.0156 22.0469C79.125 22.0469 80.5781 23.4062 80.9531 25.7031H72.9375C73.3594 23.4531 74.8125 22.0469 77.0156 22.0469ZM103.688 19.9375H99.4219L95.4375 30.8594L91.4062 19.9375H87.0938V34H89.8125V22.8906L93.8906 34H96.8906L100.969 22.8906V34H103.688V19.9375ZM126.562 19.9375H120.234C117.047 19.9375 115.031 21.7188 115.031 24.4375C115.031 26.3125 116.062 27.6719 117.844 28.3281L114.094 34H117.234L120.656 28.7031H123.75V34H126.562V19.9375ZM120.516 26.5938C118.828 26.5938 117.844 25.7969 117.844 24.3906C117.844 23.0781 118.828 22.2812 120.516 22.2812H123.75V26.5938H120.516Z" fill="black"/>
    <path d="M108.188 17.9688H111.281V15.1562H108.188V17.9688ZM108.328 34H111.141V19.9375H108.328V34Z" fill="#007EFF"/>
    <rect x="128" y="4" width="20" height="16" rx="8" fill="#FF3800"/>
    <path d="M138.105 6.81836C139.023 6.81836 139.746 7.02148 140.273 7.42773C140.805 7.83398 141.07 8.39844 141.07 9.12109C141.07 9.70312 140.922 10.1641 140.625 10.5039C140.328 10.8398 139.904 11.0527 139.354 11.1426V11.1777C140.088 11.2715 140.635 11.5078 140.994 11.8867C141.357 12.2617 141.539 12.7891 141.539 13.4688C141.539 14.2891 141.283 14.9355 140.771 15.4082C140.264 15.8809 139.564 16.1172 138.674 16.1172C137.893 16.1172 137.256 15.9941 136.764 15.748V18.8828H134.977V9.57812C134.977 8.70312 135.25 8.02539 135.797 7.54492C136.344 7.06055 137.113 6.81836 138.105 6.81836ZM138.059 8.21289C137.195 8.21289 136.764 8.72461 136.764 9.74805V14.2832C136.951 14.4043 137.182 14.5039 137.455 14.582C137.729 14.6562 137.982 14.6934 138.217 14.6934C138.717 14.6934 139.088 14.5723 139.33 14.3301C139.572 14.0879 139.693 13.748 139.693 13.3105C139.693 12.8809 139.562 12.5547 139.301 12.332C139.043 12.1055 138.666 11.9922 138.17 11.9922H137.748V10.5742H138.059C138.445 10.5742 138.746 10.4688 138.961 10.2578C139.176 10.043 139.283 9.73633 139.283 9.33789C139.283 8.97852 139.176 8.70117 138.961 8.50586C138.746 8.31055 138.445 8.21289 138.059 8.21289Z" fill="white"/>
</svg>
