<svg width="14" height="14" viewBox="0 0 14 14" fill="none" xmlns="http://www.w3.org/2000/svg">
<path d="M11.0203 10.0779L13.8757 12.9326L12.9323 13.8759L10.0777 11.0206C9.0155 11.8721 7.69434 12.3352 6.33301 12.3333C3.02101 12.3333 0.333008 9.64525 0.333008 6.33325C0.333008 3.02125 3.02101 0.333252 6.33301 0.333252C9.64501 0.333252 12.333 3.02125 12.333 6.33325C12.3349 7.69459 11.8718 9.01575 11.0203 10.0779ZM9.68301 9.58325C10.5291 8.71318 11.0016 7.54687 10.9997 6.33325C10.9997 3.75459 8.91101 1.66659 6.33301 1.66659C3.75434 1.66659 1.66634 3.75459 1.66634 6.33325C1.66634 8.91125 3.75434 10.9999 6.33301 10.9999C7.54663 11.0018 8.71293 10.5293 9.58301 9.68325L9.68301 9.58325Z" fill="#8C8C8C"/>
</svg>
