<?xml version="1.0" encoding="UTF-8" standalone="no"?>
<svg width="19px" height="12px" viewBox="0 0 19 12" version="1.1" xmlns="http://www.w3.org/2000/svg" xmlns:xlink="http://www.w3.org/1999/xlink">
    <!-- Generator: Sketch 44 (41411) - http://www.bohemiancoding.com/sketch -->
    <title>Combined Shape</title>
    <desc>Created with Sketch.</desc>
    <defs></defs>
    <g id="Page-1" stroke="none" stroke-width="1" fill="none" fill-rule="evenodd">
        <g id="DT-UI-kit" transform="translate(-1274.000000, -5545.000000)" fill="#314559">
            <path d="M1283.25314,5554.29904 C1282.07519,5554.29904 1281.02786,5553.77713 1280.32074,5552.96172 L1282.4053,5551.71159 C1282.64576,5551.87606 1282.93728,5551.97428 1283.25314,5551.97428 C1284.07307,5551.97428 1284.73744,5551.32393 1284.73744,5550.52131 C1284.73744,5550.45389 1284.72616,5550.38938 1284.71726,5550.32429 L1286.80775,5549.07008 C1287.00012,5549.51702 1287.11233,5550.00522 1287.11233,5550.52131 C1287.11233,5552.60778 1285.3846,5554.29904 1283.25314,5554.29904 M1291.60978,5548.87539 C1292.80494,5549.66115 1292.80494,5551.38147 1291.60978,5552.16666 L1287.87942,5554.61753 C1285.08121,5556.45583 1281.42506,5556.45583 1278.62685,5554.61753 L1278.11862,5554.28393 L1275.32932,5555.95717 C1275.23254,5556.01471 1275.12567,5556.0426 1275.01939,5556.0426 C1274.8199,5556.0426 1274.62457,5555.9438 1274.51295,5555.76479 C1274.34136,5555.49164 1274.42923,5555.13362 1274.70888,5554.96566 L1281.78902,5550.71833 C1281.78011,5550.65324 1281.76883,5550.58873 1281.76883,5550.52131 C1281.76883,5549.71869 1282.43321,5549.06834 1283.25314,5549.06834 C1283.569,5549.06834 1283.86051,5549.16656 1284.10097,5549.33104 L1291.17696,5545.08546 C1291.45601,5544.91807 1291.82293,5545.00409 1291.99333,5545.27783 C1292.16491,5545.55099 1292.07704,5545.909 1291.7974,5546.07696 L1289.47238,5547.47182 L1291.60978,5548.87539 Z M1274.89637,5552.16671 C1273.70121,5551.38153 1273.70121,5549.66063 1274.89637,5548.87544 L1278.62673,5546.42515 C1281.21892,5544.72169 1284.54674,5544.59964 1287.24758,5546.05203 L1285.21468,5547.27195 C1284.63936,5546.93834 1283.97023,5546.74364 1283.25302,5546.74364 C1281.12155,5546.74364 1279.39382,5548.4349 1279.39382,5550.52137 C1279.39382,5550.60099 1279.40095,5550.67829 1279.40629,5550.75675 L1275.92707,5552.8438 L1274.89637,5552.16671 Z" id="Combined-Shape"></path>
        </g>
    </g>
</svg>